<svg width="45" height="45" viewBox="0 0 45 45" fill="none" xmlns="http://www.w3.org/2000/svg">
<mask id="mask0_141_2073" style="mask-type:alpha" maskUnits="userSpaceOnUse" x="0" y="0" width="45" height="45">
<rect width="45" height="45" fill="#D9D9D9"/>
</mask>
<g mask="url(#mask0_141_2073)">
<path d="M22.4996 41.2517C20.1558 41.2517 17.9605 40.8064 15.9136 39.9158C13.8668 39.0251 12.0855 37.822 10.5699 36.3064C9.05426 34.7908 7.85114 33.0095 6.96051 30.9626C6.06989 28.9158 5.62457 26.7205 5.62457 24.3767C5.62457 22.033 6.06989 19.8376 6.96051 17.7908C7.85114 15.7439 9.05426 13.9626 10.5699 12.447C12.0855 10.9314 13.8668 9.72827 15.9136 8.83765C17.9605 7.94702 20.1558 7.50171 22.4996 7.50171C24.8433 7.50171 27.0386 7.94702 29.0855 8.83765C31.1324 9.72827 32.9136 10.9314 34.4293 12.447C35.9449 13.9626 37.148 15.7439 38.0386 17.7908C38.9293 19.8376 39.3746 22.033 39.3746 24.3767C39.3746 26.7205 38.9293 28.9158 38.0386 30.9626C37.148 33.0095 35.9449 34.7908 34.4293 36.3064C32.9136 37.822 31.1324 39.0251 29.0855 39.9158C27.0386 40.8064 24.8433 41.2517 22.4996 41.2517ZM27.7496 32.2517L30.3746 29.6267L24.3746 23.6267V15.0017H20.6246V25.1267L27.7496 32.2517ZM10.4996 4.40796L13.1246 7.03296L5.15582 15.0017L2.53082 12.3767L10.4996 4.40796ZM34.4996 4.40796L42.4683 12.3767L39.8433 15.0017L31.8746 7.03296L34.4996 4.40796ZM22.4996 37.5017C26.1558 37.5017 29.2574 36.2283 31.8043 33.6814C34.3511 31.1345 35.6246 28.033 35.6246 24.3767C35.6246 20.7205 34.3511 17.6189 31.8043 15.072C29.2574 12.5251 26.1558 11.2517 22.4996 11.2517C18.8433 11.2517 15.7418 12.5251 13.1949 15.072C10.648 17.6189 9.37457 20.7205 9.37457 24.3767C9.37457 28.033 10.648 31.1345 13.1949 33.6814C15.7418 36.2283 18.8433 37.5017 22.4996 37.5017Z" fill="white"/>
</g>
</svg>
