<svg width="436" height="108" viewBox="0 0 436 108" fill="none" xmlns="http://www.w3.org/2000/svg">
<rect x="2.59033" y="3.43408" width="430.469" height="101.599" stroke="#FAEEDF" stroke-width="5"/>
<path d="M50.375 41.14V42.04C49.715 42.28 49.055 42.805 48.395 43.615C47.735 44.425 46.97 45.625 46.1 47.215L36.29 66.925L35.255 67.15L22.52 44.785C21.95 43.795 21.425 43.105 20.945 42.715C20.465 42.325 20 42.1 19.55 42.04V41.14C19.97 41.17 20.525 41.2 21.215 41.23C21.935 41.23 22.685 41.245 23.465 41.275C24.245 41.275 24.935 41.275 25.535 41.275C26.225 41.275 27.02 41.275 27.92 41.275C28.85 41.245 29.75 41.23 30.62 41.23C31.49 41.2 32.18 41.17 32.69 41.14V42.04C32.12 42.07 31.61 42.19 31.16 42.4C30.74 42.61 30.485 42.985 30.395 43.525C30.305 44.035 30.47 44.74 30.89 45.64L39.08 60.175L37.19 63.1L43.4 50.545C44.51 48.385 45.095 46.69 45.155 45.46C45.215 44.23 44.9 43.36 44.21 42.85C43.52 42.34 42.56 42.07 41.33 42.04V41.14C42.35 41.17 43.31 41.2 44.21 41.23C45.11 41.26 46.01 41.275 46.91 41.275C47.6 41.275 48.23 41.26 48.8 41.23C49.4 41.2 49.925 41.17 50.375 41.14ZM36.38 64.675L37.235 65.035L35.12 69.31C34.73 70.09 34.385 70.705 34.085 71.155C33.785 71.605 33.47 71.995 33.14 72.325C32.66 72.805 32.075 73.135 31.385 73.315C30.725 73.525 30.05 73.63 29.36 73.63C27.83 73.63 26.615 73.27 25.715 72.55C24.815 71.83 24.365 70.945 24.365 69.895C24.365 68.815 24.755 67.96 25.535 67.33C26.315 66.67 27.26 66.34 28.37 66.34C29.51 66.34 30.44 66.595 31.16 67.105C31.88 67.585 32.24 68.29 32.24 69.22C32.24 70.06 31.94 70.765 31.34 71.335C30.77 71.905 30.065 72.325 29.225 72.595C29.315 72.655 29.435 72.7 29.585 72.73C29.735 72.73 29.915 72.73 30.125 72.73C30.995 72.73 31.745 72.43 32.375 71.83C33.035 71.2 33.635 70.33 34.175 69.22L36.38 64.675ZM61.9913 49.78C64.2713 49.78 66.0713 50.005 67.3913 50.455C68.7113 50.905 69.6563 51.535 70.2263 52.345C70.7963 53.125 71.0813 54.04 71.0813 55.09C71.0813 56.74 70.1963 58.15 68.4263 59.32C66.6563 60.49 63.8963 61.075 60.1463 61.075C60.1463 61.075 60.0563 61.06 59.8763 61.03C59.6963 60.97 59.5013 60.925 59.2913 60.895C59.1113 60.835 59.0213 60.805 59.0213 60.805C60.5513 60.775 61.7063 60.565 62.4863 60.175C63.2663 59.785 63.7913 59.215 64.0613 58.465C64.3613 57.685 64.5113 56.725 64.5113 55.585C64.5113 54.685 64.4063 53.875 64.1963 53.155C64.0163 52.405 63.6413 51.82 63.0713 51.4C62.5313 50.95 61.7213 50.725 60.6413 50.725C59.7713 50.725 59.1563 50.935 58.7963 51.355C58.4663 51.775 58.3013 52.645 58.3013 53.965V68.815C58.3013 70.135 58.4813 71.005 58.8413 71.425C59.2013 71.845 59.8463 72.055 60.7763 72.055C62.0363 72.055 63.0113 71.815 63.7013 71.335C64.3913 70.825 64.8563 70.18 65.0963 69.4C65.3663 68.59 65.5013 67.735 65.5013 66.835C65.5013 64.945 65.0513 63.61 64.1513 62.83C63.2813 62.05 61.9613 61.66 60.1913 61.66H54.9713C54.9713 61.66 54.9713 61.525 54.9713 61.255C54.9713 60.955 54.9713 60.805 54.9713 60.805H61.0463L61.8113 60.895C64.3913 60.895 66.4313 61.12 67.9313 61.57C69.4313 62.02 70.5113 62.68 71.1713 63.55C71.8313 64.42 72.1613 65.5 72.1613 66.79C72.1613 67.99 71.8613 69.07 71.2613 70.03C70.6613 70.96 69.6563 71.695 68.2463 72.235C66.8663 72.745 64.9913 73 62.6213 73C61.6913 73 60.5663 72.97 59.2463 72.91C57.9263 72.85 56.5463 72.82 55.1063 72.82C53.9963 72.82 52.8413 72.85 51.6413 72.91C50.4413 72.94 49.5413 72.97 48.9413 73V72.055C49.9913 72.055 50.7263 71.83 51.1463 71.38C51.5963 70.93 51.8213 70.075 51.8213 68.815V53.965C51.8213 52.705 51.5963 51.85 51.1463 51.4C50.7263 50.95 49.9913 50.725 48.9413 50.725V49.78C49.5113 49.81 50.3663 49.855 51.5063 49.915C52.6763 49.945 53.7863 49.96 54.8363 49.96C56.1863 49.96 57.4763 49.93 58.7063 49.87C59.9663 49.81 61.0613 49.78 61.9913 49.78ZM102.052 49.78V50.725C101.002 50.725 100.252 50.95 99.8022 51.4C99.3822 51.85 99.1722 52.705 99.1722 53.965V68.815C99.1722 70.075 99.3822 70.93 99.8022 71.38C100.252 71.83 101.002 72.055 102.052 72.055V73C101.512 72.97 100.657 72.94 99.4872 72.91C98.3472 72.85 97.2222 72.82 96.1122 72.82C94.9722 72.82 93.8472 72.85 92.7372 72.91C91.6572 72.94 90.8322 72.97 90.2622 73V72.055C91.1622 72.055 91.7922 71.83 92.1522 71.38C92.5122 70.93 92.6922 70.075 92.6922 68.815V53.965C92.6922 52.705 92.5122 51.85 92.1522 51.4C91.7922 50.95 91.1622 50.725 90.2622 50.725V49.78C90.8022 49.81 91.5972 49.855 92.6472 49.915C93.6972 49.945 94.7622 49.96 95.8422 49.96C97.0122 49.96 98.1822 49.945 99.3522 49.915C100.552 49.855 101.452 49.81 102.052 49.78ZM86.5272 49.78V50.725C85.6572 50.725 85.0272 50.95 84.6372 51.4C84.2772 51.85 84.0972 52.705 84.0972 53.965V68.815C84.0972 70.075 84.2772 70.93 84.6372 71.38C85.0272 71.83 85.6572 72.055 86.5272 72.055V73C85.9872 72.97 85.1922 72.94 84.1422 72.91C83.1222 72.85 82.0572 72.82 80.9472 72.82C79.8072 72.82 78.6372 72.85 77.4372 72.91C76.2372 72.94 75.3372 72.97 74.7372 73V72.055C75.7872 72.055 76.5222 71.83 76.9422 71.38C77.3922 70.93 77.6172 70.075 77.6172 68.815V53.965C77.6172 52.705 77.3922 51.85 76.9422 51.4C76.5222 50.95 75.7872 50.725 74.7372 50.725V49.78C75.3072 49.81 76.1622 49.855 77.3022 49.915C78.4722 49.945 79.5972 49.96 80.6772 49.96C81.8472 49.96 82.9722 49.945 84.0522 49.915C85.1622 49.855 85.9872 49.81 86.5272 49.78ZM93.2322 52.525L93.9972 52.975L83.2872 71.11L82.5222 70.66L93.2322 52.525ZM126.005 49.78V50.725C125.045 50.725 124.37 50.95 123.98 51.4C123.59 51.82 123.395 52.66 123.395 53.92V68.815C123.395 70.075 123.65 70.93 124.16 71.38C124.7 71.83 125.66 72.055 127.04 72.055C126.92 73.105 126.83 74.11 126.77 75.07C126.74 76.03 126.725 76.765 126.725 77.275C126.725 77.815 126.74 78.325 126.77 78.805C126.8 79.315 126.83 79.735 126.86 80.065H125.825C125.555 78.295 125.18 76.885 124.7 75.835C124.22 74.785 123.56 74.035 122.72 73.585C121.91 73.135 120.845 72.91 119.525 72.91C118.865 72.91 118.22 72.925 117.59 72.955C116.99 72.955 116.36 72.97 115.7 73C115.04 73 114.32 73 113.54 73C112.76 73 111.89 73 110.93 73C109.61 73 108.53 73.21 107.69 73.63C106.88 74.08 106.235 74.815 105.755 75.835C105.305 76.885 104.93 78.295 104.63 80.065H103.595C103.655 79.735 103.685 79.315 103.685 78.805C103.715 78.325 103.73 77.815 103.73 77.275C103.73 76.765 103.7 76.03 103.64 75.07C103.61 74.11 103.535 73.105 103.415 72.055H113.945C115.025 72.055 115.79 71.83 116.24 71.38C116.69 70.93 116.915 70.075 116.915 68.815V53.965C116.915 52.705 116.735 51.85 116.375 51.4C116.015 50.95 115.385 50.725 114.485 50.725H114.08C113.15 50.725 112.55 50.965 112.28 51.445C112.04 51.895 111.86 52.735 111.74 53.965C111.62 55.735 111.455 57.52 111.245 59.32C111.065 61.12 110.81 62.845 110.48 64.495C110.18 66.115 109.745 67.585 109.175 68.905C108.665 70.045 108.02 70.96 107.24 71.65C106.49 72.31 105.59 72.685 104.54 72.775L104.27 72.055C105.26 72.055 106.1 71.725 106.79 71.065C107.48 70.375 107.99 69.595 108.32 68.725C108.89 67.405 109.325 65.935 109.625 64.315C109.955 62.695 110.21 61.015 110.39 59.275C110.57 57.505 110.72 55.735 110.84 53.965C110.93 52.705 110.66 51.85 110.03 51.4C109.43 50.95 108.515 50.725 107.285 50.725V49.78C107.525 49.81 107.9 49.84 108.41 49.87C108.95 49.87 109.58 49.87 110.3 49.87C110.9 49.87 111.545 49.855 112.235 49.825C112.925 49.795 113.765 49.78 114.755 49.78C115.925 49.78 116.93 49.81 117.77 49.87C118.61 49.93 119.495 49.96 120.425 49.96C121.445 49.96 122.495 49.945 123.575 49.915C124.655 49.855 125.465 49.81 126.005 49.78ZM140.18 49.105C142.82 49.105 144.89 49.885 146.39 51.445C147.89 53.005 148.64 55.555 148.64 59.095H133.835L133.745 58.24H142.97C143 56.77 142.91 55.42 142.7 54.19C142.49 52.93 142.16 51.925 141.71 51.175C141.26 50.425 140.66 50.05 139.91 50.05C138.86 50.05 137.96 50.71 137.21 52.03C136.49 53.35 136.055 55.54 135.905 58.6L136.04 58.87C136.01 59.23 135.98 59.605 135.95 59.995C135.95 60.385 135.95 60.79 135.95 61.21C135.95 63.28 136.235 64.96 136.805 66.25C137.405 67.54 138.155 68.485 139.055 69.085C139.955 69.655 140.87 69.94 141.8 69.94C142.43 69.94 143.075 69.85 143.735 69.67C144.425 69.46 145.115 69.1 145.805 68.59C146.495 68.05 147.14 67.3 147.74 66.34L148.55 66.61C148.19 67.75 147.62 68.86 146.84 69.94C146.06 71.02 145.07 71.905 143.87 72.595C142.67 73.285 141.23 73.63 139.55 73.63C137.51 73.63 135.71 73.195 134.15 72.325C132.59 71.455 131.36 70.135 130.46 68.365C129.59 66.595 129.155 64.345 129.155 61.615C129.155 58.825 129.62 56.5 130.55 54.64C131.51 52.78 132.815 51.4 134.465 50.5C136.145 49.57 138.05 49.105 140.18 49.105ZM175.231 49.78C175.111 51.04 175.021 52.255 174.961 53.425C174.931 54.565 174.916 55.45 174.916 56.08C174.916 56.65 174.931 57.22 174.961 57.79C174.991 58.33 175.021 58.78 175.051 59.14H174.016C173.656 56.98 173.161 55.285 172.531 54.055C171.901 52.825 171.196 51.955 170.416 51.445C169.666 50.935 168.856 50.68 167.986 50.68H166.501V68.365C166.501 69.835 166.876 70.825 167.626 71.335C168.406 71.815 169.441 72.055 170.731 72.055V73C169.981 72.97 168.931 72.94 167.581 72.91C166.261 72.85 164.836 72.82 163.306 72.82C161.806 72.82 160.366 72.85 158.986 72.91C157.636 72.94 156.571 72.97 155.791 73V72.055C157.141 72.055 158.176 71.86 158.896 71.47C159.646 71.05 160.021 70.105 160.021 68.635V50.68H158.356C157.546 50.68 156.766 50.935 156.016 51.445C155.266 51.955 154.591 52.825 153.991 54.055C153.421 55.285 152.941 56.98 152.551 59.14H151.516C151.576 58.78 151.606 58.33 151.606 57.79C151.636 57.25 151.651 56.68 151.651 56.08C151.651 55.45 151.621 54.565 151.561 53.425C151.531 52.255 151.456 51.04 151.336 49.78H156.106C156.946 49.78 158.011 49.81 159.301 49.87C160.591 49.9 161.896 49.915 163.216 49.915C164.596 49.915 165.931 49.9 167.221 49.87C168.541 49.81 169.621 49.78 170.461 49.78H175.231ZM189.631 49.78V50.725C188.581 50.725 187.831 50.95 187.381 51.4C186.961 51.85 186.751 52.705 186.751 53.965V69.76C186.751 70.66 186.916 71.275 187.246 71.605C187.576 71.905 188.191 72.055 189.091 72.055C190.411 72.055 191.416 71.785 192.106 71.245C192.826 70.705 193.321 70 193.591 69.13C193.861 68.23 193.996 67.285 193.996 66.295C193.996 64.195 193.501 62.68 192.511 61.75C191.551 60.82 189.886 60.355 187.516 60.355C186.946 60.355 186.346 60.37 185.716 60.4C185.086 60.43 184.531 60.445 184.051 60.445L183.961 59.545C185.221 59.545 186.376 59.53 187.426 59.5C188.506 59.47 189.496 59.455 190.396 59.455C194.026 59.455 196.636 60.07 198.226 61.3C199.846 62.53 200.656 64.06 200.656 65.89C200.656 67 200.296 68.11 199.576 69.22C198.886 70.3 197.731 71.2 196.111 71.92C194.521 72.64 192.361 73 189.631 73C188.731 73 187.786 72.97 186.796 72.91C185.806 72.85 184.711 72.82 183.511 72.82C182.461 72.82 181.351 72.85 180.181 72.91C179.041 72.94 178.201 72.97 177.661 73V72.055C178.621 72.055 179.296 71.83 179.686 71.38C180.076 70.93 180.271 70.075 180.271 68.815V53.965C180.271 52.705 180.091 51.85 179.731 51.4C179.371 50.95 178.741 50.725 177.841 50.725V49.78C178.351 49.81 179.131 49.855 180.181 49.915C181.231 49.945 182.311 49.96 183.421 49.96C184.561 49.96 185.731 49.945 186.931 49.915C188.131 49.855 189.031 49.81 189.631 49.78ZM226.171 49.78C228.451 49.78 230.251 50.005 231.571 50.455C232.891 50.905 233.836 51.535 234.406 52.345C234.976 53.125 235.261 54.04 235.261 55.09C235.261 56.74 234.376 58.15 232.606 59.32C230.836 60.49 228.076 61.075 224.326 61.075C224.326 61.075 224.236 61.06 224.056 61.03C223.876 60.97 223.681 60.925 223.471 60.895C223.291 60.835 223.201 60.805 223.201 60.805C224.731 60.775 225.886 60.565 226.666 60.175C227.446 59.785 227.971 59.215 228.241 58.465C228.541 57.685 228.691 56.725 228.691 55.585C228.691 54.685 228.586 53.875 228.376 53.155C228.196 52.405 227.821 51.82 227.251 51.4C226.711 50.95 225.901 50.725 224.821 50.725C223.951 50.725 223.336 50.935 222.976 51.355C222.646 51.775 222.481 52.645 222.481 53.965V68.815C222.481 70.135 222.661 71.005 223.021 71.425C223.381 71.845 224.026 72.055 224.956 72.055C226.216 72.055 227.191 71.815 227.881 71.335C228.571 70.825 229.036 70.18 229.276 69.4C229.546 68.59 229.681 67.735 229.681 66.835C229.681 64.945 229.231 63.61 228.331 62.83C227.461 62.05 226.141 61.66 224.371 61.66H219.151C219.151 61.66 219.151 61.525 219.151 61.255C219.151 60.955 219.151 60.805 219.151 60.805H225.226L225.991 60.895C228.571 60.895 230.611 61.12 232.111 61.57C233.611 62.02 234.691 62.68 235.351 63.55C236.011 64.42 236.341 65.5 236.341 66.79C236.341 67.99 236.041 69.07 235.441 70.03C234.841 70.96 233.836 71.695 232.426 72.235C231.046 72.745 229.171 73 226.801 73C225.871 73 224.746 72.97 223.426 72.91C222.106 72.85 220.726 72.82 219.286 72.82C218.176 72.82 217.021 72.85 215.821 72.91C214.621 72.94 213.721 72.97 213.121 73V72.055C214.171 72.055 214.906 71.83 215.326 71.38C215.776 70.93 216.001 70.075 216.001 68.815V53.965C216.001 52.705 215.776 51.85 215.326 51.4C214.906 50.95 214.171 50.725 213.121 50.725V49.78C213.691 49.81 214.546 49.855 215.686 49.915C216.856 49.945 217.966 49.96 219.016 49.96C220.366 49.96 221.656 49.93 222.886 49.87C224.146 49.81 225.241 49.78 226.171 49.78ZM250.617 49.105C251.787 49.105 252.852 49.24 253.812 49.51C254.802 49.75 255.612 50.065 256.242 50.455C257.022 50.935 257.622 51.535 258.042 52.255C258.492 52.945 258.717 53.755 258.717 54.685C258.717 55.735 258.387 56.605 257.727 57.295C257.067 57.955 256.212 58.285 255.162 58.285C254.112 58.285 253.272 57.985 252.642 57.385C252.012 56.785 251.697 55.975 251.697 54.955C251.697 53.995 251.997 53.2 252.597 52.57C253.197 51.91 253.887 51.475 254.667 51.265C254.427 50.965 254.067 50.71 253.587 50.5C253.107 50.29 252.567 50.185 251.967 50.185C251.037 50.185 250.212 50.455 249.492 50.995C248.802 51.535 248.217 52.285 247.737 53.245C247.257 54.205 246.882 55.33 246.612 56.62C246.372 57.91 246.252 59.32 246.252 60.85C246.252 63.16 246.537 64.975 247.107 66.295C247.707 67.615 248.457 68.545 249.357 69.085C250.287 69.625 251.247 69.895 252.237 69.895C252.807 69.895 253.422 69.805 254.082 69.625C254.772 69.445 255.462 69.085 256.152 68.545C256.872 68.005 257.532 67.24 258.132 66.25L258.897 66.52C258.567 67.63 258.027 68.74 257.277 69.85C256.527 70.96 255.552 71.875 254.352 72.595C253.152 73.285 251.682 73.63 249.942 73.63C247.992 73.63 246.222 73.21 244.632 72.37C243.072 71.5 241.812 70.18 240.852 68.41C239.922 66.61 239.457 64.3 239.457 61.48C239.457 58.78 239.937 56.515 240.897 54.685C241.887 52.825 243.222 51.43 244.902 50.5C246.582 49.57 248.487 49.105 250.617 49.105ZM272.851 49.105C275.491 49.105 277.561 49.885 279.061 51.445C280.561 53.005 281.311 55.555 281.311 59.095H266.506L266.416 58.24H275.641C275.671 56.77 275.581 55.42 275.371 54.19C275.161 52.93 274.831 51.925 274.381 51.175C273.931 50.425 273.331 50.05 272.581 50.05C271.531 50.05 270.631 50.71 269.881 52.03C269.161 53.35 268.726 55.54 268.576 58.6L268.711 58.87C268.681 59.23 268.651 59.605 268.621 59.995C268.621 60.385 268.621 60.79 268.621 61.21C268.621 63.28 268.906 64.96 269.476 66.25C270.076 67.54 270.826 68.485 271.726 69.085C272.626 69.655 273.541 69.94 274.471 69.94C275.101 69.94 275.746 69.85 276.406 69.67C277.096 69.46 277.786 69.1 278.476 68.59C279.166 68.05 279.811 67.3 280.411 66.34L281.221 66.61C280.861 67.75 280.291 68.86 279.511 69.94C278.731 71.02 277.741 71.905 276.541 72.595C275.341 73.285 273.901 73.63 272.221 73.63C270.181 73.63 268.381 73.195 266.821 72.325C265.261 71.455 264.031 70.135 263.131 68.365C262.261 66.595 261.826 64.345 261.826 61.615C261.826 58.825 262.291 56.5 263.221 54.64C264.181 52.78 265.486 51.4 267.136 50.5C268.816 49.57 270.721 49.105 272.851 49.105ZM325.515 49.735V50.68C324.795 50.68 324.24 50.785 323.85 50.995C323.46 51.175 323.19 51.52 323.04 52.03C322.89 52.51 322.815 53.215 322.815 54.145V68.59C322.815 69.52 322.89 70.24 323.04 70.75C323.19 71.23 323.46 71.575 323.85 71.785C324.24 71.965 324.795 72.055 325.515 72.055V73C324.885 72.97 324.045 72.94 322.995 72.91C321.945 72.85 320.85 72.82 319.71 72.82C318.48 72.82 317.28 72.85 316.11 72.91C314.94 72.94 314.025 72.97 313.365 73V72.055C314.145 72.055 314.745 71.965 315.165 71.785C315.615 71.575 315.915 71.23 316.065 70.75C316.245 70.24 316.335 69.52 316.335 68.59V52.345L307.74 73.225H307.02L298.425 52.615V66.61C298.425 67.78 298.53 68.77 298.74 69.58C298.95 70.36 299.355 70.96 299.955 71.38C300.555 71.8 301.44 72.04 302.61 72.1V73C302.01 72.94 301.305 72.91 300.495 72.91C299.715 72.88 298.875 72.865 297.975 72.865C297.345 72.865 296.685 72.88 295.995 72.91C295.335 72.91 294.78 72.94 294.33 73V72.1C295.2 72.04 295.86 71.785 296.31 71.335C296.76 70.855 297.06 70.195 297.21 69.355C297.36 68.515 297.435 67.51 297.435 66.34V54.505C297.435 53.395 297.36 52.585 297.21 52.075C297.06 51.535 296.76 51.175 296.31 50.995C295.86 50.785 295.2 50.665 294.33 50.635V49.735C294.78 49.765 295.335 49.795 295.995 49.825C296.685 49.855 297.345 49.87 297.975 49.87C300.285 49.87 302.295 49.825 304.005 49.735L310.395 65.8L308.775 68.32L316.335 49.87C316.875 49.87 317.475 49.885 318.135 49.915C318.795 49.915 319.41 49.915 319.98 49.915C321.06 49.915 322.095 49.9 323.085 49.87C324.105 49.81 324.915 49.765 325.515 49.735ZM339.472 49.105C342.112 49.105 344.182 49.885 345.682 51.445C347.182 53.005 347.932 55.555 347.932 59.095H333.127L333.037 58.24H342.262C342.292 56.77 342.202 55.42 341.992 54.19C341.782 52.93 341.452 51.925 341.002 51.175C340.552 50.425 339.952 50.05 339.202 50.05C338.152 50.05 337.252 50.71 336.502 52.03C335.782 53.35 335.347 55.54 335.197 58.6L335.332 58.87C335.302 59.23 335.272 59.605 335.242 59.995C335.242 60.385 335.242 60.79 335.242 61.21C335.242 63.28 335.527 64.96 336.097 66.25C336.697 67.54 337.447 68.485 338.347 69.085C339.247 69.655 340.162 69.94 341.092 69.94C341.722 69.94 342.367 69.85 343.027 69.67C343.717 69.46 344.407 69.1 345.097 68.59C345.787 68.05 346.432 67.3 347.032 66.34L347.842 66.61C347.482 67.75 346.912 68.86 346.132 69.94C345.352 71.02 344.362 71.905 343.162 72.595C341.962 73.285 340.522 73.63 338.842 73.63C336.802 73.63 335.002 73.195 333.442 72.325C331.882 71.455 330.652 70.135 329.752 68.365C328.882 66.595 328.447 64.345 328.447 61.615C328.447 58.825 328.912 56.5 329.842 54.64C330.802 52.78 332.107 51.4 333.757 50.5C335.437 49.57 337.342 49.105 339.472 49.105ZM377.043 49.78V50.725C375.993 50.725 375.243 50.95 374.793 51.4C374.373 51.85 374.163 52.705 374.163 53.965V68.815C374.163 70.075 374.373 70.93 374.793 71.38C375.243 71.83 375.993 72.055 377.043 72.055V73C376.503 72.97 375.648 72.94 374.478 72.91C373.338 72.85 372.213 72.82 371.103 72.82C369.963 72.82 368.838 72.85 367.728 72.91C366.648 72.94 365.823 72.97 365.253 73V72.055C366.153 72.055 366.783 71.83 367.143 71.38C367.503 70.93 367.683 70.075 367.683 68.815V53.965C367.683 52.705 367.503 51.85 367.143 51.4C366.783 50.95 366.153 50.725 365.253 50.725V49.78C365.793 49.81 366.588 49.855 367.638 49.915C368.688 49.945 369.753 49.96 370.833 49.96C372.003 49.96 373.173 49.945 374.343 49.915C375.543 49.855 376.443 49.81 377.043 49.78ZM362.328 49.78V50.725C361.458 50.725 360.828 50.95 360.438 51.4C360.078 51.85 359.898 52.705 359.898 53.965V68.815C359.898 70.075 360.078 70.93 360.438 71.38C360.828 71.83 361.458 72.055 362.328 72.055V73C361.788 72.97 360.993 72.94 359.943 72.91C358.923 72.85 357.858 72.82 356.748 72.82C355.608 72.82 354.438 72.85 353.238 72.91C352.038 72.94 351.138 72.97 350.538 73V72.055C351.588 72.055 352.323 71.83 352.743 71.38C353.193 70.93 353.418 70.075 353.418 68.815V53.965C353.418 52.705 353.193 51.85 352.743 51.4C352.323 50.95 351.588 50.725 350.538 50.725V49.78C351.108 49.81 351.963 49.855 353.103 49.915C354.273 49.945 355.398 49.96 356.478 49.96C357.648 49.96 358.773 49.945 359.853 49.915C360.963 49.855 361.788 49.81 362.328 49.78ZM370.023 60.58V61.48H357.333V60.58H370.023ZM403.13 49.105C405.2 49.105 407.03 49.51 408.62 50.32C410.21 51.13 411.455 52.435 412.355 54.235C413.255 56.035 413.705 58.42 413.705 61.39C413.705 64.36 413.255 66.745 412.355 68.545C411.455 70.315 410.21 71.605 408.62 72.415C407.03 73.225 405.2 73.63 403.13 73.63C401.09 73.63 399.26 73.225 397.64 72.415C396.05 71.605 394.805 70.315 393.905 68.545C393.005 66.745 392.555 64.36 392.555 61.39C392.555 58.42 393.005 56.035 393.905 54.235C394.805 52.435 396.05 51.13 397.64 50.32C399.26 49.51 401.09 49.105 403.13 49.105ZM390.98 49.78V50.725C390.11 50.725 389.48 50.95 389.09 51.4C388.73 51.85 388.55 52.705 388.55 53.965V68.815C388.55 70.075 388.745 70.93 389.135 71.38C389.555 71.83 390.23 72.055 391.16 72.055V73C390.62 72.97 389.795 72.94 388.685 72.91C387.605 72.85 386.51 72.82 385.4 72.82C384.26 72.82 383.09 72.85 381.89 72.91C380.69 72.94 379.79 72.97 379.19 73V72.055C380.24 72.055 380.975 71.83 381.395 71.38C381.845 70.93 382.07 70.075 382.07 68.815V53.965C382.07 52.705 381.845 51.85 381.395 51.4C380.975 50.95 380.24 50.725 379.19 50.725V49.78C379.76 49.81 380.615 49.855 381.755 49.915C382.925 49.945 384.05 49.96 385.13 49.96C386.3 49.96 387.425 49.945 388.505 49.915C389.615 49.855 390.44 49.81 390.98 49.78ZM395.39 60.985V61.885H386.435V60.985H395.39ZM403.13 50.005C402.41 50.005 401.765 50.365 401.195 51.085C400.625 51.775 400.175 52.945 399.845 54.595C399.515 56.245 399.35 58.51 399.35 61.39C399.35 64.24 399.515 66.49 399.845 68.14C400.175 69.79 400.625 70.975 401.195 71.695C401.765 72.385 402.41 72.73 403.13 72.73C403.85 72.73 404.495 72.385 405.065 71.695C405.635 70.975 406.085 69.79 406.415 68.14C406.745 66.49 406.91 64.24 406.91 61.39C406.91 58.51 406.745 56.245 406.415 54.595C406.085 52.945 405.635 51.775 405.065 51.085C404.495 50.365 403.85 50.005 403.13 50.005Z" fill="white"/>
</svg>
