<svg width="45" height="45" viewBox="0 0 45 45" fill="none" xmlns="http://www.w3.org/2000/svg">
<mask id="mask0_141_2076" style="mask-type:alpha" maskUnits="userSpaceOnUse" x="0" y="0" width="45" height="45">
<rect width="45" height="45" fill="#D9D9D9"/>
</mask>
<g mask="url(#mask0_141_2076)">
<path d="M37.4063 39.375C33.5 39.375 29.6406 38.5234 25.8281 36.8203C22.0156 35.1172 18.5469 32.7031 15.4219 29.5781C12.2969 26.4531 9.88281 22.9844 8.17969 19.1719C6.47656 15.3594 5.625 11.5 5.625 7.59375C5.625 7.03125 5.8125 6.5625 6.1875 6.1875C6.5625 5.8125 7.03125 5.625 7.59375 5.625H15.1875C15.625 5.625 16.0156 5.77344 16.3594 6.07031C16.7031 6.36719 16.9062 6.71875 16.9688 7.125L18.1875 13.6875C18.25 14.1875 18.2344 14.6094 18.1406 14.9531C18.0469 15.2969 17.875 15.5938 17.625 15.8438L13.0781 20.4375C13.7031 21.5938 14.4453 22.7109 15.3047 23.7891C16.1641 24.8672 17.1094 25.9062 18.1406 26.9062C19.1094 27.875 20.125 28.7734 21.1875 29.6016C22.25 30.4297 23.375 31.1875 24.5625 31.875L28.9688 27.4688C29.25 27.1875 29.6172 26.9766 30.0703 26.8359C30.5234 26.6953 30.9688 26.6562 31.4062 26.7188L37.875 28.0312C38.3125 28.1562 38.6719 28.3828 38.9531 28.7109C39.2344 29.0391 39.375 29.4063 39.375 29.8125V37.4063C39.375 37.9688 39.1875 38.4375 38.8125 38.8125C38.4375 39.1875 37.9688 39.375 37.4063 39.375ZM11.2969 16.875L14.3906 13.7812L13.5938 9.375H9.42188C9.57813 10.6562 9.79688 11.9219 10.0781 13.1719C10.3594 14.4219 10.7656 15.6562 11.2969 16.875ZM28.0781 33.6562C29.2969 34.1875 30.5391 34.6094 31.8047 34.9219C33.0703 35.2344 34.3438 35.4375 35.625 35.5312V31.4062L31.2188 30.5156L28.0781 33.6562Z" fill="white"/>
</g>
</svg>
