<svg width="282" height="233" viewBox="0 0 282 233" fill="none" xmlns="http://www.w3.org/2000/svg">
<g clip-path="url(#clip0_695_38)">
<path d="M258.237 228.484C221.329 258.09 143.241 137.356 69.2277 200.746C60.5407 208.186 48.8257 212.702 38.3437 208.125C-35.0552 176.076 9.08624 84.9706 45.5632 55.7095C111.309 29.9841 169.058 -14.3466 228.77 13.0939C301.59 87.5587 283.343 182.028 258.237 228.484Z" fill="#169B62"/>
<mask id="mask0_695_38" style="mask-type:alpha" maskUnits="userSpaceOnUse" x="83" y="50" width="129" height="129">
<rect x="83.4297" y="50.6978" width="128.078" height="128.078" fill="#D9D9D9"/>
</mask>
<g mask="url(#mask0_695_38)">
<path d="M110.112 162.766C108.6 162.766 107.332 162.254 106.31 161.231C105.287 160.209 104.775 158.941 104.775 157.429V152.093C100.328 152.093 96.5481 150.536 93.4351 147.423C90.3221 144.31 88.7656 140.53 88.7656 136.083V109.4C88.7656 104.953 90.3221 101.173 93.4351 98.0599C96.5481 94.9469 100.328 93.3904 104.775 93.3904V82.7172C104.775 78.2701 106.332 74.49 109.445 71.377C112.558 68.264 116.338 66.7075 120.785 66.7075H174.151C178.598 66.7075 182.378 68.264 185.491 71.377C188.604 74.49 190.16 78.2701 190.16 82.7172V93.3904C194.608 93.3904 198.388 94.9469 201.501 98.0599C204.614 101.173 206.17 104.953 206.17 109.4V136.083C206.17 140.53 204.614 144.31 201.501 147.423C198.388 150.536 194.608 152.093 190.16 152.093V157.429C190.16 158.941 189.649 160.209 188.626 161.231C187.603 162.254 186.336 162.766 184.824 162.766C183.312 162.766 182.044 162.254 181.022 161.231C179.999 160.209 179.487 158.941 179.487 157.429V152.093H115.448V157.429C115.448 158.941 114.937 160.209 113.914 161.231C112.891 162.254 111.624 162.766 110.112 162.766ZM104.775 141.419H190.16C191.672 141.419 192.94 140.908 193.963 139.885C194.986 138.862 195.497 137.595 195.497 136.083V109.4C195.497 107.888 194.986 106.621 193.963 105.598C192.94 104.575 191.672 104.063 190.16 104.063C188.648 104.063 187.381 104.575 186.358 105.598C185.335 106.621 184.824 107.888 184.824 109.4V130.746H110.112V109.4C110.112 107.888 109.6 106.621 108.578 105.598C107.555 104.575 106.287 104.063 104.775 104.063C103.263 104.063 101.996 104.575 100.973 105.598C99.9502 106.621 99.4388 107.888 99.4388 109.4V136.083C99.4388 137.595 99.9502 138.862 100.973 139.885C101.996 140.908 103.263 141.419 104.775 141.419ZM120.785 120.073H174.151V109.4C174.151 106.999 174.64 104.82 175.618 102.863C176.597 100.906 177.886 99.1716 179.487 97.6596V82.7172C179.487 81.2052 178.976 79.9378 177.953 78.9149C176.93 77.8921 175.663 77.3807 174.151 77.3807H120.785C119.273 77.3807 118.006 77.8921 116.983 78.9149C115.96 79.9378 115.448 81.2052 115.448 82.7172V97.6596C117.049 99.1716 118.339 100.906 119.317 102.863C120.296 104.82 120.785 106.999 120.785 109.4V120.073Z" fill="white"/>
</g>
</g>
<defs>
<clipPath id="clip0_695_38">
<rect width="282" height="233" fill="white"/>
</clipPath>
</defs>
</svg>
