<svg width="301" height="212" viewBox="0 0 301 212" fill="none" xmlns="http://www.w3.org/2000/svg">
<path d="M300.704 113.311C300.704 162.183 199.557 115.595 143.408 185.884C140.722 189.246 137.464 192.323 133.677 194.369C33.5758 248.44 0 162.419 0 113.311C15.2531 -42.8889 33.4115 83.8501 95.1503 33.266C132.92 -58.4528 300.704 63.2704 300.704 113.311Z" fill="#169B62"/>
<mask id="mask0_695_37" style="mask-type:alpha" maskUnits="userSpaceOnUse" x="75" y="31" width="129" height="129">
<rect x="75.7324" y="31.1841" width="128.078" height="128.078" fill="#D9D9D9"/>
</mask>
<g mask="url(#mask0_695_37)">
<path d="M75.7324 85.2459V79.9093C75.7324 69.6809 80.5576 61.7872 90.2079 56.2283C99.8582 50.6694 112.822 47.8899 129.098 47.8899C145.375 47.8899 158.338 50.6694 167.988 56.2283C177.639 61.7872 182.464 69.6809 182.464 79.9093V85.2459H75.7324ZM87.206 74.5727H170.99C168.944 69.414 164.208 65.4561 156.782 62.6989C149.355 59.9416 140.127 58.563 129.098 58.563C118.069 58.563 108.841 59.9416 101.415 62.6989C93.9879 65.4561 89.2517 69.414 87.206 74.5727ZM75.7324 109.26V98.5873C78.9344 98.5873 81.4692 97.6979 83.337 95.919C85.2048 94.1401 88.6291 93.2507 93.6099 93.2507C98.5907 93.2507 101.971 94.1401 103.749 95.919C105.528 97.6979 108.019 98.5873 111.221 98.5873C114.423 98.5873 116.957 97.6979 118.825 95.919C120.693 94.1401 124.117 93.2507 129.098 93.2507C134.079 93.2507 137.503 94.1401 139.371 95.919C141.239 97.6979 143.774 98.5873 146.976 98.5873C150.178 98.5873 152.668 97.6979 154.447 95.919C156.226 94.1401 159.605 93.2507 164.586 93.2507C169.567 93.2507 173.08 94.1401 175.126 95.919C177.172 97.6979 179.618 98.5873 182.464 98.5873V109.26C177.483 109.26 174.148 108.371 172.458 106.592C170.768 104.813 168.322 103.924 165.12 103.924C161.918 103.924 159.339 104.813 157.382 106.592C155.425 108.371 151.956 109.26 146.976 109.26C141.995 109.26 138.571 108.371 136.703 106.592C134.835 104.813 132.3 103.924 129.098 103.924C125.896 103.924 123.361 104.813 121.493 106.592C119.626 108.371 116.201 109.26 111.221 109.26C106.24 109.26 102.86 108.371 101.081 106.592C99.3023 104.813 96.8119 103.924 93.6099 103.924C90.408 103.924 87.8731 104.813 86.0053 106.592C84.1375 108.371 80.7132 109.26 75.7324 109.26ZM86.4056 143.948C83.4704 143.948 80.9578 142.903 78.8677 140.813C76.7775 138.723 75.7324 136.21 75.7324 133.275V117.265H182.464V133.275C182.464 136.21 181.419 138.723 179.329 140.813C177.238 142.903 174.726 143.948 171.791 143.948H86.4056ZM86.4056 133.275H171.791V127.938H86.4056V133.275Z" fill="white"/>
</g>
</svg>
