<svg width="31" height="31" viewBox="0 0 31 31" fill="none" xmlns="http://www.w3.org/2000/svg">
<path d="M0.17 26.88C2.21 25.08 3.89 22.95 5.21 20.49C6.53 18.03 7.22 15.66 7.28 13.38H6.65C4.97 13.38 3.53 12.84 2.33 11.76C1.13 10.56 0.53 9.03 0.53 7.17C0.53 5.25 1.13 3.69 2.33 2.49C3.53 1.41 4.97 0.869997 6.65 0.869997C8.27 0.869997 9.71 1.41 10.97 2.49L11.24 2.85C12.68 4.47 13.4 6.75 13.4 9.69C13.4 13.17 12.41 16.89 10.43 20.85C8.51 24.75 6.14 27.87 3.32 30.21L0.17 26.88ZM17 26.88C19.04 25.08 20.72 22.95 22.04 20.49C23.36 18.03 24.05 15.66 24.11 13.38H23.48C21.74 13.38 20.3 12.84 19.16 11.76C17.96 10.56 17.36 9.03 17.36 7.17C17.36 5.25 17.96 3.69 19.16 2.49C20.3 1.41 21.74 0.869997 23.48 0.869997C25.1 0.869997 26.54 1.41 27.8 2.49L28.07 2.85C29.51 4.47 30.23 6.75 30.23 9.69C30.23 13.17 29.24 16.89 27.26 20.85C25.34 24.75 22.97 27.87 20.15 30.21L17 26.88Z" fill="#FF883E"/>
</svg>
