<svg width="301" height="212" viewBox="0 0 301 212" fill="none" xmlns="http://www.w3.org/2000/svg">
<path d="M300.704 113.311C300.704 162.183 199.557 115.595 143.408 185.884C140.722 189.246 137.464 192.323 133.677 194.369C33.5758 248.44 0 162.419 0 113.311C15.2531 -42.8889 33.4115 83.8501 95.1503 33.266C132.92 -58.4528 300.704 63.2704 300.704 113.311Z" fill="#169B62"/>
<mask id="mask0_257_25" style="mask-type:alpha" maskUnits="userSpaceOnUse" x="75" y="31" width="129" height="129">
<rect x="75.7329" y="31.184" width="128.078" height="128.078" fill="#D9D9D9"/>
</mask>
<g mask="url(#mask0_257_25)">
<path d="M75.7329 85.2458V79.9092C75.7329 69.6808 80.5581 61.7871 90.2084 56.2282C99.8586 50.6693 112.822 47.8898 129.099 47.8898C145.375 47.8898 158.339 50.6693 167.989 56.2282C177.639 61.7871 182.464 69.6808 182.464 79.9092V85.2458H75.7329ZM87.2065 74.5726H170.991C168.945 69.414 164.209 65.456 156.782 62.6988C149.355 59.9415 140.127 58.5629 129.099 58.5629C118.07 58.5629 108.842 59.9415 101.415 62.6988C93.9884 65.456 89.2522 69.414 87.2065 74.5726ZM75.7329 109.26V98.5872C78.9349 98.5872 81.4697 97.6978 83.3375 95.9189C85.2053 94.1401 88.6296 93.2506 93.6104 93.2506C98.5912 93.2506 101.971 94.1401 103.75 95.9189C105.529 97.6978 108.019 98.5872 111.221 98.5872C114.423 98.5872 116.958 97.6978 118.826 95.9189C120.693 94.1401 124.118 93.2506 129.099 93.2506C134.079 93.2506 137.504 94.1401 139.371 95.9189C141.239 97.6978 143.774 98.5872 146.976 98.5872C150.178 98.5872 152.668 97.6978 154.447 95.9189C156.226 94.1401 159.606 93.2506 164.587 93.2506C169.568 93.2506 173.081 94.1401 175.126 95.9189C177.172 97.6978 179.618 98.5872 182.464 98.5872V109.26C177.483 109.26 174.148 108.371 172.458 106.592C170.768 104.813 168.322 103.924 165.12 103.924C161.918 103.924 159.339 104.813 157.382 106.592C155.426 108.371 151.957 109.26 146.976 109.26C141.995 109.26 138.571 108.371 136.703 106.592C134.835 104.813 132.301 103.924 129.099 103.924C125.897 103.924 123.362 104.813 121.494 106.592C119.626 108.371 116.202 109.26 111.221 109.26C106.24 109.26 102.86 108.371 101.082 106.592C99.3028 104.813 96.8124 103.924 93.6104 103.924C90.4085 103.924 87.8736 104.813 86.0058 106.592C84.138 108.371 80.7137 109.26 75.7329 109.26ZM86.406 143.948C83.4709 143.948 80.9583 142.903 78.8681 140.813C76.778 138.723 75.7329 136.21 75.7329 133.275V117.265H182.464V133.275C182.464 136.21 181.419 138.723 179.329 140.813C177.239 142.903 174.726 143.948 171.791 143.948H86.406ZM86.406 133.275H171.791V127.938H86.406V133.275Z" fill="white"/>
</g>
</svg>
