<svg width="305" height="225" viewBox="0 0 305 225" fill="none" xmlns="http://www.w3.org/2000/svg">
<g clip-path="url(#clip0_695_39)">
<path d="M267.485 218.303C230.57 247.915 144.517 127.125 69.602 190.603C60.8757 197.997 49.1543 202.534 38.6924 197.911C-34.1218 165.737 13.8517 73.873 50.3208 44.6182C179.697 -44.173 166.217 46.1319 235.363 51.3452C325.153 16.4392 306.588 186.935 267.485 218.303Z" fill="#FF883E"/>
<mask id="mask0_695_39" style="mask-type:alpha" maskUnits="userSpaceOnUse" x="82" y="50" width="129" height="129">
<rect x="82.6562" y="50.2095" width="128.078" height="128.078" fill="#D9D9D9"/>
</mask>
<g mask="url(#mask0_695_39)">
<path d="M109.338 156.941V146.268H120.012V124.921L87.9922 76.8923H162.704L130.685 124.921V146.268H141.358V156.941H109.338ZM114.141 98.2386H136.555L144.026 87.5655H106.67L114.141 98.2386ZM168.041 156.941C163.594 156.941 159.813 155.384 156.7 152.271C153.587 149.158 152.031 145.378 152.031 140.931C152.031 136.484 153.587 132.704 156.7 129.591C159.813 126.478 163.594 124.921 168.041 124.921C169.019 124.921 169.953 124.988 170.842 125.122C171.732 125.255 172.577 125.544 173.377 125.989V76.8923H200.06V92.902H184.05V140.931C184.05 145.378 182.494 149.158 179.381 152.271C176.268 155.384 172.488 156.941 168.041 156.941Z" fill="white"/>
</g>
</g>
<defs>
<clipPath id="clip0_695_39">
<rect width="305" height="225" fill="white"/>
</clipPath>
</defs>
</svg>
