<svg width="175" height="129" viewBox="0 0 175 129" fill="none" xmlns="http://www.w3.org/2000/svg">
<mask id="mask0_239_22" style="mask-type:alpha" maskUnits="userSpaceOnUse" x="0" y="0" width="129" height="129">
<rect x="0.712891" y="0.579376" width="128.078" height="128.078" fill="#D9D9D9"/>
</mask>
<g mask="url(#mask0_239_22)">
<path d="M64.7519 64.6182C58.8816 64.6182 53.8564 62.528 49.6761 58.3477C45.4958 54.1674 43.4056 49.1421 43.4056 43.2719C43.4056 37.4017 45.4958 32.3764 49.6761 28.1961C53.8564 24.0158 58.8816 21.9256 64.7519 21.9256C70.6221 21.9256 75.6474 24.0158 79.8277 28.1961C84.008 32.3764 86.0981 37.4017 86.0981 43.2719C86.0981 49.1421 84.008 54.1674 79.8277 58.3477C75.6474 62.528 70.6221 64.6182 64.7519 64.6182ZM22.0593 107.311V92.3683C22.0593 89.3443 22.8153 86.5648 24.3274 84.0299C25.8394 81.4951 27.9296 79.5606 30.5978 78.2264C35.9344 75.5581 41.4711 73.5125 47.2079 72.0894C52.9447 70.6663 58.7927 69.9548 64.7519 69.9548C70.711 69.9548 76.559 70.6663 82.2958 72.0894C88.0326 73.5125 93.5693 75.5581 98.9059 78.2264C101.574 79.5606 103.664 81.4951 105.176 84.0299C106.688 86.5648 107.444 89.3443 107.444 92.3683V107.311H22.0593ZM64.7519 53.945C67.687 53.945 70.1996 52.9 72.2898 50.8098C74.3799 48.7197 75.425 46.207 75.425 43.2719C75.425 40.3368 74.3799 37.8242 72.2898 35.734C70.1996 33.6439 67.687 32.5988 64.7519 32.5988C61.8168 32.5988 59.3041 33.6439 57.214 35.734C55.1238 37.8242 54.0787 40.3368 54.0787 43.2719C54.0787 46.207 55.1238 48.7197 57.214 50.8098C59.3041 52.9 61.8168 53.945 64.7519 53.945ZM86.0981 84.3635V96.6376H96.7713V92.3683C96.7713 91.39 96.5489 90.5005 96.1042 89.7001C95.6595 88.8996 94.9924 88.277 94.103 87.8323C92.8578 87.1207 91.5459 86.4759 90.1673 85.8977C88.7887 85.3196 87.4323 84.8082 86.0981 84.3635ZM54.0787 81.5618V88.6327H75.425V81.5618C73.6461 81.206 71.8673 80.9614 70.0884 80.828C68.3096 80.6946 66.5307 80.6279 64.7519 80.6279C62.973 80.6279 61.1942 80.6946 59.4153 80.828C57.6364 80.9614 55.8576 81.206 54.0787 81.5618ZM32.7325 96.6376H43.4056V84.3635C42.0715 84.8082 40.7151 85.3196 39.3365 85.8977C37.9578 86.4759 36.6459 87.1207 35.4007 87.8323C34.5113 88.277 33.8442 88.8996 33.3995 89.7001C32.9548 90.5005 32.7325 91.39 32.7325 92.3683V96.6376Z" fill="white"/>
</g>
<mask id="mask1_239_22" style="mask-type:alpha" maskUnits="userSpaceOnUse" x="107" y="45" width="68" height="67">
<rect x="107.63" y="45.1281" width="66.8231" height="66.8231" fill="#D9D9D9"/>
</mask>
<g mask="url(#mask1_239_22)">
<path d="M127.12 106.383V80.9063C124.753 80.2567 122.77 78.9573 121.169 77.0083C119.568 75.0593 118.767 72.7855 118.767 70.1868V50.6967H124.336V70.1868H127.12V50.6967H132.689V70.1868H135.473V50.6967H141.041V70.1868C141.041 72.7855 140.241 75.0593 138.64 77.0083C137.039 78.9573 135.055 80.2567 132.689 80.9063V106.383H127.12ZM154.963 106.383V84.1083H146.61V64.6182C146.61 60.7666 147.967 57.4834 150.682 54.7687C153.397 52.0541 156.68 50.6967 160.532 50.6967V106.383H154.963Z" fill="white"/>
</g>
</svg>
