<svg width="306" height="202" viewBox="0 0 306 202" fill="none" xmlns="http://www.w3.org/2000/svg">
<g clip-path="url(#clip0_695_26)">
<path d="M8.21234 9.64759C34.7455 -29.047 157.013 93.319 209.186 16.9986C216.292 6.60322 227.384 -1.81403 239.718 0.725957C327.76 18.8577 307.603 136.148 281.166 174.701C222.706 216.315 174.198 202.571 100.8 187.9C-5.09229 127.665 0.527083 63.3693 8.21234 9.64759Z" fill="#FF883E"/>
<mask id="mask0_695_26" style="mask-type:alpha" maskUnits="userSpaceOnUse" x="68" y="42" width="129" height="129">
<rect x="68.7129" y="42.5793" width="128.078" height="128.078" fill="#D9D9D9"/>
</mask>
<g mask="url(#mask0_695_26)">
<path d="M132.751 106.618C126.881 106.618 121.856 104.528 117.675 100.348C113.495 96.1673 111.405 91.142 111.405 85.2718C111.405 79.4016 113.495 74.3763 117.675 70.196C121.856 66.0157 126.881 63.9255 132.751 63.9255C138.621 63.9255 143.647 66.0157 147.827 70.196C152.007 74.3763 154.097 79.4016 154.097 85.2718C154.097 91.142 152.007 96.1673 147.827 100.348C143.647 104.528 138.621 106.618 132.751 106.618ZM90.0586 149.311V134.368C90.0586 131.344 90.8146 128.565 92.3266 126.03C93.8387 123.495 95.9288 121.56 98.5971 120.226C103.934 117.558 109.47 115.512 115.207 114.089C120.944 112.666 126.792 111.955 132.751 111.955C138.71 111.955 144.558 112.666 150.295 114.089C156.032 115.512 161.569 117.558 166.905 120.226C169.573 121.56 171.664 123.495 173.176 126.03C174.688 128.565 175.444 131.344 175.444 134.368V149.311H90.0586ZM132.751 95.9449C135.686 95.9449 138.199 94.8999 140.289 92.8097C142.379 90.7196 143.424 88.2069 143.424 85.2718C143.424 82.3367 142.379 79.8241 140.289 77.7339C138.199 75.6438 135.686 74.5987 132.751 74.5987C129.816 74.5987 127.303 75.6438 125.213 77.7339C123.123 79.8241 122.078 82.3367 122.078 85.2718C122.078 88.2069 123.123 90.7196 125.213 92.8097C127.303 94.8999 129.816 95.9449 132.751 95.9449ZM154.097 126.363V138.637H164.771V134.368C164.771 133.39 164.548 132.5 164.103 131.7C163.659 130.899 162.992 130.277 162.102 129.832C160.857 129.121 159.545 128.476 158.167 127.898C156.788 127.32 155.432 126.808 154.097 126.363ZM122.078 123.562V130.633H143.424V123.562C141.645 123.206 139.867 122.961 138.088 122.828C136.309 122.694 134.53 122.628 132.751 122.628C130.972 122.628 129.193 122.694 127.415 122.828C125.636 122.961 123.857 123.206 122.078 123.562ZM100.732 138.637H111.405V126.363C110.071 126.808 108.714 127.32 107.336 127.898C105.957 128.476 104.645 129.121 103.4 129.832C102.511 130.277 101.844 130.899 101.399 131.7C100.954 132.5 100.732 133.39 100.732 134.368V138.637Z" fill="white"/>
</g>
<mask id="mask1_695_26" style="mask-type:alpha" maskUnits="userSpaceOnUse" x="175" y="87" width="68" height="67">
<rect x="175.629" y="87.1282" width="66.8231" height="66.8231" fill="#D9D9D9"/>
</mask>
<g mask="url(#mask1_695_26)">
<path d="M195.119 148.383V122.906C192.752 122.257 190.768 120.957 189.167 119.008C187.566 117.059 186.766 114.786 186.766 112.187V92.6968H192.334V112.187H195.119V92.6968H200.687V112.187H203.471V92.6968H209.04V112.187C209.04 114.786 208.24 117.059 206.639 119.008C205.038 120.957 203.054 122.257 200.687 122.906V148.383H195.119ZM222.961 148.383V126.108H214.609V106.618C214.609 102.767 215.966 99.4835 218.681 96.7688C221.395 94.0541 224.678 92.6968 228.53 92.6968V148.383H222.961Z" fill="white"/>
</g>
</g>
<defs>
<clipPath id="clip0_695_26">
<rect width="306" height="202" fill="white"/>
</clipPath>
</defs>
</svg>
