<svg width="31" height="31" viewBox="0 0 31 31" fill="none" xmlns="http://www.w3.org/2000/svg">
<path d="M7.28 30.12C5.66 30.12 4.25 29.58 3.05 28.5C2.81 28.32 2.51 27.99 2.15 27.51C1.07 25.83 0.53 23.76 0.53 21.3C0.53 17.82 1.49 14.13 3.41 10.23C5.39 6.27 7.79 3.12 10.61 0.779999L13.76 4.11C11.72 5.91 10.04 8.07 8.72 10.59C7.46 13.05 6.77 15.42 6.65 17.7H7.28C8.96 17.7 10.4 18.21 11.6 19.23C12.8 20.61 13.4 22.17 13.4 23.91C13.4 25.65 12.8 27.18 11.6 28.5C10.4 29.58 8.96 30.12 7.28 30.12ZM24.11 30.12C22.49 30.12 21.08 29.58 19.88 28.5C19.64 28.32 19.34 27.99 18.98 27.51C17.9 25.77 17.36 23.7 17.36 21.3C17.36 17.82 18.32 14.13 20.24 10.23C22.22 6.27 24.62 3.12 27.44 0.779999L30.59 4.11C28.55 5.91 26.87 8.07 25.55 10.59C24.29 13.05 23.6 15.42 23.48 17.7H24.11C25.79 17.7 27.23 18.21 28.43 19.23C29.63 20.61 30.23 22.17 30.23 23.91C30.23 25.65 29.63 27.18 28.43 28.5C27.29 29.58 25.85 30.12 24.11 30.12Z" fill="#FF883E"/>
</svg>
